<svg width="24" height="24" viewBox="0 0 24 24" fill="none" xmlns="http://www.w3.org/2000/svg">
<g clip-path="url(#clip0_2_4057)">
<path fill-rule="evenodd" clip-rule="evenodd" d="M2.11403 5.926C2.22757 5.65188 2.41985 5.41758 2.66656 5.25276C2.91327 5.08793 3.20332 4.99997 3.50003 5H13.5C15.4892 5 17.3968 5.79018 18.8033 7.1967C20.2099 8.60322 21 10.5109 21 12.5C21 14.4891 20.2099 16.3968 18.8033 17.8033C17.3968 19.2098 15.4892 20 13.5 20H4.50003C4.1022 20 3.72067 19.842 3.43937 19.5607C3.15806 19.2794 3.00003 18.8978 3.00003 18.5C3.00003 18.1022 3.15806 17.7206 3.43937 17.4393C3.72067 17.158 4.1022 17 4.50003 17H13.5C14.6935 17 15.8381 16.5259 16.682 15.682C17.5259 14.8381 18 13.6935 18 12.5C18 11.3065 17.5259 10.1619 16.682 9.31802C15.8381 8.47411 14.6935 8 13.5 8H7.12103L8.06103 8.94C8.33413 9.22303 8.48515 9.60201 8.48155 9.9953C8.47795 10.3886 8.32001 10.7647 8.04177 11.0427C7.76353 11.3207 7.38723 11.4783 6.99393 11.4815C6.60063 11.4847 6.2218 11.3334 5.93903 11.06L2.43903 7.56C2.22941 7.35026 2.08666 7.0831 2.02882 6.79227C1.97097 6.50144 2.00062 6.19999 2.11403 5.926Z" fill="black"/>
</g>
<defs>
<clipPath id="clip0_2_4057">
<rect width="24" height="24" fill="white"/>
</clipPath>
</defs>
</svg>
