<svg width="18" height="18" viewBox="0 0 18 18" fill="none" xmlns="http://www.w3.org/2000/svg">
<path d="M1.69779e-06 10V2C1.69779e-06 1.45 0.196002 0.979002 0.588002 0.587002C0.980002 0.195002 1.45067 -0.000664969 2 1.69779e-06H8V10H1.69779e-06ZM10 1.69779e-06H16C16.55 1.69779e-06 17.021 0.196002 17.413 0.588002C17.805 0.980002 18.0007 1.45067 18 2V6H10V1.69779e-06ZM10 18V8H18V16C18 16.55 17.804 17.021 17.412 17.413C17.02 17.805 16.5493 18.0007 16 18H10ZM1.69779e-06 12H8V18H2C1.45 18 0.979002 17.804 0.587002 17.412C0.195002 17.02 -0.000664969 16.5493 1.69779e-06 16V12Z" fill="#E55E76"/>
</svg>
