<svg width="30" height="30" viewBox="0 0 30 30" fill="none" xmlns="http://www.w3.org/2000/svg">
<path d="M22.5 1.875H28.125V3.75H22.5V1.875ZM22.5 7.5H26.25V9.375H22.5V7.5ZM22.5 13.125H28.125V15H22.5V13.125ZM22.5 18.75H26.25V20.625H22.5V18.75Z" fill="black"/>
<path d="M28.125 26.25H22.5C20.6272 26.2434 18.7989 25.6781 17.2493 24.6262C15.6997 23.5744 14.4993 22.084 13.8018 20.3459C13.1044 18.6078 12.9415 16.701 13.3342 14.8698C13.7268 13.0386 14.6571 11.3662 16.0059 10.0669C14.7809 9.61538 13.4865 9.38123 12.1809 9.375C11.0396 9.36344 9.91553 9.65394 8.92271 10.217C7.92989 10.7801 7.10366 11.5958 6.52781 12.5813C4.68469 15.4078 3.75 20.0063 3.75 26.25H1.875C1.875 19.6369 2.91188 14.6934 4.95656 11.5566C5.70371 10.3101 6.76328 9.28018 8.03048 8.56872C9.29769 7.85726 10.7287 7.48888 12.1819 7.5H12.1875C14.2938 7.53002 16.3655 8.04049 18.2447 8.9925C18.3895 9.06805 18.512 9.18013 18.6002 9.31761C18.6884 9.4551 18.7391 9.61324 18.7473 9.77635C18.7555 9.93947 18.721 10.1019 18.6472 10.2476C18.5733 10.3933 18.4627 10.5171 18.3263 10.6069C16.9895 11.5051 15.9762 12.8085 15.4355 14.3255C14.8947 15.8425 14.8551 17.493 15.3223 19.0342C15.7895 20.5754 16.7389 21.9261 18.031 22.8875C19.3231 23.8488 20.8895 24.3703 22.5 24.375H28.125V26.25Z" fill="black"/>
</svg>
