<svg width="30" height="30" viewBox="0 0 30 30" fill="none" xmlns="http://www.w3.org/2000/svg">
<path d="M22.5 1.875H28.125V3.75H22.5V1.875ZM22.5 7.5H26.25V9.375H22.5V7.5ZM22.5 13.125H28.125V15H22.5V13.125ZM22.5 18.75H26.25V20.625H22.5V18.75Z" fill="#E55E76"/>
<path fill-rule="evenodd" clip-rule="evenodd" d="M1.87549 26H28.125V24.375H22.5C20.8895 24.3703 19.323 23.8489 18.031 22.8875C16.7389 21.9261 15.7895 20.5754 15.3223 19.0342C14.855 17.493 14.8947 15.8425 15.4355 14.3255C15.9762 12.8085 16.9895 11.5051 18.3262 10.6069C18.4627 10.5171 18.5733 10.3933 18.6472 10.2476C18.721 10.1019 18.7555 9.93947 18.7473 9.77635C18.7391 9.61324 18.6883 9.4551 18.6002 9.31761C18.512 9.18013 18.3895 9.06805 18.2447 8.9925C16.3655 8.04049 14.2938 7.53002 12.1875 7.5H12.1819C10.7286 7.48888 9.29768 7.85726 8.03047 8.56872C6.76327 9.28018 5.70371 10.3101 4.95655 11.5566C2.93771 14.6538 1.90137 19.5122 1.87549 26ZM15.4694 23.0563C15.3717 22.9452 15.2767 22.8319 15.1843 22.7164C15.2755 22.8337 15.3707 22.9469 15.4694 23.0563Z" fill="#E55E76"/>
</svg>
